<svg xmlns="http://www.w3.org/2000/svg" width="2001.86" height="2002.006" viewBox="0 0 2001.86 2002.006">
	<g fill-rule="evenodd" clip-rule="evenodd">
		<path fill="#FB0F38" d="M1 2000.75C1 1335.749 1.005 670.749.89 5.748.889 1.694 1.696.89 5.749.89c665 .115 1330.001.11 1995.001.11.992 2.067.473 4.267.473 6.395.027 434.316.026 868.632.027 1302.929.211 2.342-.462 3.652-3.075 2.462-2.02-.919-3.456-2.585-4.972-4.121-12.394-12.557-24.478-25.463-37.133-37.707-19.389-18.758-38.25-38.032-57.483-56.936-13.657-13.424-26.866-27.311-40.694-40.553-38.971-37.318-76.199-76.395-114.993-113.873-35.573-34.364-69.723-70.153-105.386-104.403-28.348-27.225-55.698-55.434-83.768-82.928-2.727-2.671-4.823-5.929-7.913-8.249-6.059-7.055-12.95-13.285-19.485-19.864-2.087-2.104-4.763-2.089-7.426-2.098-13.919-.041-27.839.013-41.758-.036-2.636-.009-5.309.276-7.894-.546-11.559-9.518-22.242-20.008-32.851-30.551-30.134-29.948-59.689-60.492-90.274-89.97-30.953-29.831-61.044-60.51-91.504-90.824-39.427-39.237-78.327-79.014-118.173-117.817-36.643-35.683-72.088-72.564-108.942-108.011-35.545-34.188-69.535-69.934-105.086-104.09-29.678-28.512-58.328-58.041-87.686-86.863-1.025-1.006-1.92-2.202-3.348-2.918-.796 2.015-.43 3.852-.43 5.642-.023 66.144-.016 132.288-.033 198.433 0 2.486.396 5.052-.552 7.428-.744 1.866-1.838 3.527-3.856.968-1.291-3.044-.813-6.251-.814-9.384-.036-66.318-.104-132.636.091-198.954.021-6.993-1.724-12.265-6.97-17.155-15.4-14.358-8.566-12.164-29.926-12.185-99.31-.097-198.621.056-297.93-.228-8.05-.023-14.194 1.972-19.062 8.113-2.185 2.758-4.672 5.222-7.277 7.53-4.338 3.843-5.601 8.474-5.598 14.215.111 215.617-.138 431.233.331 646.849.074 34.329 6.992 67.812 21.611 99.329 3.16 6.812 6.699 13.396 10.426 19.886 2.485 4.326 2.662 8.371.106 12.709-17.799 30.22-27.479 62.941-30.64 97.807-1.1 12.122-1.773 24.203-1.77 36.363.045 140.468-.248 280.936.207 421.401.127 39.209 8.032 77.112 26.532 112.177 11.095 21.029 24.972 40.058 41.911 56.882 6.368 6.325 13.055 12.337 19.146 18.929 2.239 4.565 5.755 8.158 9.499 11.428 9.289 8.117 17.762 17.057 26.474 25.754 37.931 37.872 76.241 75.376 113.593 113.813 34.456 35.457 69.801 70.013 104.475 105.241 1.513 1.538 3.19 2.966 4.018 5.039.963 2.413-.329 2.96-2.426 2.792-265.062-.001-530.105.001-795.148-.027-2.125 0-4.326.519-6.394-.473z"/>
		<path fill="#FEFEFE" d="M1 2000.75c265.809 0 531.618 0 797.427-.007 2.162-.001 4.322-.104 6.483-.16 1.342-1.896 3.385-1.913 5.392-1.987 3.497-.129 6.997-.074 10.495-.074 388.033-.003 776.066-.002 1164.101-.005 2.832 0 5.664.026 8.496-.082 3.198-.122 4.907-1.671 5.037-4.933.106-2.666.086-5.331.086-7.996.003-220.258-.007-440.516.07-660.773.001-3.989-1.407-8.397 1.996-11.889.056-2.328.16-4.656.16-6.984.007-434.954.007-869.907.007-1304.86.308.218 1.043-.506 1.011.5-.043 1.332-.011 2.666-.011 3.998 0 663.834-.005 1327.669.11 1991.503 0 4.054-.806 4.859-4.86 4.858-663.834-.114-1327.668-.108-1991.501-.171-1.463 0-3.391 1.154-4.499-.938z"/>
		<path fill="#FDFDFD" d="M1468.826 839.821c17.298.118 34.596.357 51.892.26 3.843-.022 6.547 1.105 9.122 3.863 4.883 5.229 10.056 10.189 15.139 15.229 1.313 1.301 2.604 2.566 2.74 4.553 1.707 2.595 2.377 5.461 2.281 8.545-.041 1.331.004 2.666.004 4 0 224.47.15 448.94-.17 673.412-.045 31.6-5.186 62.709-17.238 92.23-8.994 22.026-20.855 42.441-36.645 60.365-17.544 19.918-36.253 38.636-58.512 53.369-25.716 17.021-53.712 28.508-84.079 34.273-17.928 3.403-35.966 4.128-54.156 4.119-203.474-.104-406.947.117-610.42-.228-38.036-.064-74.027-9.8-107.59-28.163-12.832-7.02-24.438-15.455-34.589-25.942-14.646-13.588-29.039-27.419-41.167-43.392-25.737-33.89-41.039-71.961-45.925-114.252-1.645-14.239-2.27-28.494-2.262-42.827.078-142.976-.28-285.952.25-428.925.156-42.245 10.573-82.329 32.678-118.839 1.774-2.931 1.971-4.993.13-8.05-19.058-31.666-29.034-66.151-31.986-102.896-.988-12.313-1.012-24.599-1.013-36.907-.017-211.13-.001-422.26-.097-633.39-.002-3.982.953-6.839 3.947-9.543 5.065-4.572 9.861-9.467 14.489-14.485 2.259-2.449 4.666-3.155 7.875-3.153 106.481.067 212.963.073 319.443-.025 3.323-.003 5.632 1.046 7.811 3.327 4.708 4.929 9.42 9.869 14.388 14.53 2.401 2.252 3.191 4.607 3.187 7.831-.081 69.656-.063 139.31-.052 208.964 0 1.824.155 3.648.238 5.472 1.006 2.488-.476 4.145-1.99 5.728-4.838 5.057-9.838 9.954-14.831 14.858-3 2.946-6.675 3.408-10.608 3.416-23.162.051-46.324-.007-69.486.022-10.471.013-10.485.02-10.485 10.646-.005 123.144-.005 246.288 0 369.432 0 10.403.015 10.417 10.713 10.418 154.305.005 308.61.002 462.915.003 87.317 0 174.635 0 261.952-.005 4.17.002 8.368-.232 12.107 2.157z"/>
		<path fill="#A80B26" d="M546.604 1739.706c12.556 9.563 25.386 18.695 39.445 25.994 32.946 17.105 68.098 25.923 105.073 25.966 207.277.234 414.555.41 621.833-.082 56.955-.136 106.937-20.447 149.579-58.394 24.447-21.755 45.626-46.116 60.355-75.641 13.629-27.32 20.94-56.271 23.452-86.647 1.252-15.141 1.037-30.257 1.04-45.387.04-218.274.027-436.551.041-654.825 0-2.321.193-4.643.296-6.965 1.358 1.22 2.772 2.385 4.065 3.673 9.557 9.522 19.064 19.094 28.633 28.604 51.967 51.651 103.603 103.641 156.042 154.808 35.757 34.891 70.455 70.842 106.426 105.496 36.342 35.012 71.524 71.175 107.428 106.618 16.806 16.59 33.517 33.275 50.271 49.918.056 1.83.16 3.658.16 5.487.007 225.463-.013 450.925.132 676.388.004 5.036-1.18 6.154-6.174 6.152-394.768-.132-789.535-.121-1184.304-.128-1.829 0-3.659-.104-5.487-.16-1.236-1.347-2.426-2.739-3.715-4.033-31.423-31.496-63.183-62.664-94.214-94.541-51.951-53.366-105.304-105.329-157.532-158.414-1.114-1.131-2.832-1.913-2.845-3.887zM1468.826 839.821c-1.985.128-3.97.368-5.953.368-245.742.017-491.483.018-737.225.008-7.721 0-6.574.178-6.573-6.832.01-127.619.035-255.238-.104-382.856-.006-4.729.987-6.103 5.912-6.051 25.821.274 51.647.051 77.47.217 3.673.023 6.219-1.041 8.687-3.684 5.681-6.084 11.647-11.903 17.499-17.835.091-1.997.261-3.985.261-5.974.015-68.31.012-136.619.012-204.928v-6.011c2.569-.312 3.412 1.63 4.592 2.802 54.851 54.454 109.46 109.153 164.55 163.364 43.693 42.995 86.694 86.688 130.586 129.47 35.787 34.883 70.605 70.731 106.51 105.479 7.893 7.638 15.257 15.742 23.045 23.458 62.479 61.905 124.738 124.031 187.204 185.95 7.794 7.726 16.071 14.972 23.527 23.055z"/>
		<path fill="#A80B26" d="M1002.549 1135.051c92.484 0 184.969.031 277.453-.097 4.449-.006 5.766.956 5.761 5.649-.145 127.979-.145 255.957-.005 383.936.005 4.732-1.002 6.071-5.923 6.067-184.968-.138-369.937-.138-554.906-.002-4.865.004-5.966-1.241-5.96-6.028.143-127.979.143-255.957-.005-383.936-.005-4.6 1.085-5.7 5.632-5.693 92.651.138 185.302.104 277.953.104z"/>
	</g>
</svg>