<svg xmlns="http://www.w3.org/2000/svg" width="512" height="512" viewBox="0 0 512 512">
	<path fill="#191F28" d="M0 0h512v512H0V0z"/>
	<linearGradient id="a" gradientUnits="userSpaceOnUse" x1="256.0388" y1="396.373" x2="256.0388" y2="777.25" gradientTransform="translate(-.04 -330.8105)">
		<stop offset="0" stop-color="#1e9dda"/>
		<stop offset="1" stop-color="#356abb"/>
	</linearGradient>
	<path fill="url(#a)" d="M417.854 153.285c-5.479-28.378-21.693-52.948-45.637-69.114-17.998-12.18-38.92-18.608-60.565-18.608-36.043 0-69.58 17.805-89.747 47.581L110.753 277.549c-16.197 23.959-22.095 52.771-16.602 81.182 5.479 28.379 21.694 52.936 45.639 69.102 17.98 12.195 38.92 18.607 60.563 18.607 36.027 0 69.563-17.807 89.715-47.6L401.22 234.467c16.23-23.991 22.111-52.787 16.634-81.182zm-157.64 225.307c-13.431 19.883-35.865 31.789-59.858 31.77-14.396 0-28.378-4.307-40.35-12.404-15.957-10.781-26.771-27.143-30.438-46.086-3.664-18.932.289-38.135 11.072-54.072l56.171-82.985L316.334 295l-56.12 83.592z"/>
</svg>