<svg xmlns="http://www.w3.org/2000/svg" width="512" height="512" viewBox="0 0 512 512">
	<path fill="#27282D" d="M512 492c0 11.046-8.954 20-20 20H20c-11.046 0-20-8.954-20-20V20C0 8.954 8.954 0 20 0h472c11.046 0 20 8.954 20 20v472z"/>
	<path fill="#3E7FCF" d="M417.854 153.285c-5.479-28.378-21.693-52.948-45.637-69.114-17.998-12.18-38.92-18.608-60.565-18.608-36.043 0-69.58 17.805-89.747 47.581L110.753 277.549c-16.197 23.959-22.095 52.771-16.601 81.182 5.479 28.379 21.694 52.935 45.638 69.101 17.981 12.195 38.92 18.607 60.564 18.607 36.027 0 69.563-17.806 89.715-47.599L401.22 234.467c16.231-23.991 22.112-52.787 16.634-81.182zm-157.64 225.307c-13.436 19.879-35.818 31.77-59.858 31.77-14.396 0-28.378-4.307-40.35-12.405-15.957-10.781-26.771-27.142-30.437-46.086-3.664-18.931.289-38.134 11.072-54.072l44.352-65.627c6.589-9.738 19.846-12.309 29.615-5.721l84.219 56.934c4.692 3.148 7.922 8.066 8.999 13.609 1.062 5.575-.097 11.297-3.263 15.989l-44.349 65.609z"/>
</svg>