<?xml version="1.0" encoding="utf-8"?>
<!-- Generator: Adobe Illustrator 16.0.0, SVG Export Plug-In . SVG Version: 6.00 Build 0)  -->
<!DOCTYPE svg PUBLIC "-//W3C//DTD SVG 1.1//EN" "http://www.w3.org/Graphics/SVG/1.1/DTD/svg11.dtd">
<svg version="1.1" id="Capa_1" xmlns="http://www.w3.org/2000/svg" xmlns:xlink="http://www.w3.org/1999/xlink" x="0px" y="0px"
	 width="512px" height="512px" viewBox="0 0 512 512" enable-background="new 0 0 512 512" xml:space="preserve">
<path stroke="#000000" stroke-miterlimit="10" d="M417.854,153.285c-5.479-28.378-21.693-52.948-45.637-69.114
	c-17.998-12.18-38.92-18.608-60.565-18.608c-36.043,0-69.58,17.805-89.747,47.581L110.753,277.549
	C94.556,301.508,88.658,330.32,94.15,358.73c5.479,28.379,21.694,52.938,45.641,69.104c17.979,12.195,38.92,18.607,60.563,18.607
	c36.027,0,69.563-17.809,89.715-47.602L401.22,234.467C417.448,210.476,423.329,181.68,417.854,153.285z M260.214,378.592
	c-13.431,19.883-35.865,31.789-59.858,31.77c-14.396,0-28.378-4.307-40.35-12.402c-15.957-10.781-26.771-27.145-30.438-46.086
	c-3.664-18.934,0.289-38.137,11.072-54.072l56.171-82.985L316.334,295L260.214,378.592L260.214,378.592z"/>
</svg>
