<?xml version="1.0" encoding="utf-8"?>
<!-- Generator: Adobe Illustrator 16.0.0, SVG Export Plug-In . SVG Version: 6.00 Build 0)  -->
<!DOCTYPE svg PUBLIC "-//W3C//DTD SVG 1.1//EN" "http://www.w3.org/Graphics/SVG/1.1/DTD/svg11.dtd">
<svg version="1.1" id="Capa_1" xmlns="http://www.w3.org/2000/svg" xmlns:xlink="http://www.w3.org/1999/xlink" x="0px" y="0px"
	 width="512px" height="512px" viewBox="0 0 512 512" enable-background="new 0 0 512 512" xml:space="preserve">
<g id="Capa_2">
	<linearGradient id="SVGID_1_" gradientUnits="userSpaceOnUse" x1="255.9998" y1="0" x2="255.9997" y2="512.0005">
		<stop  offset="0" style="stop-color:#FA00B9"/>
		<stop  offset="1" style="stop-color:#CC00CC"/>
	</linearGradient>
	<rect x="0" fill="url(#SVGID_1_)" width="512" height="512"/>
</g>
<g id="Capa_1_1_">
	<g>
		<g>
			<path fill="#FFFFFF" d="M417.854,153.285c-5.479-28.378-21.693-52.948-45.637-69.114c-17.998-12.18-38.92-18.608-60.565-18.608
				c-36.043,0-69.58,17.805-89.747,47.581L110.753,277.549c-16.197,23.959-22.095,52.771-16.601,81.182
				c5.479,28.379,21.694,52.935,45.638,69.101c17.981,12.195,38.92,18.607,60.564,18.607c36.027,0,69.563-17.806,89.715-47.599
				l111.151-164.373C417.451,210.476,423.332,181.68,417.854,153.285z M260.214,378.592c-13.436,19.879-35.818,31.77-59.858,31.77
				c-14.396,0-28.378-4.307-40.35-12.405c-15.957-10.781-26.771-27.142-30.437-46.086c-3.664-18.931,0.289-38.134,11.072-54.072
				l56.171-82.985L316.334,295L260.214,378.592z"/>
		</g>
	</g>
</g>
</svg>
