<svg xmlns="http://www.w3.org/2000/svg" viewBox="0 0 512 512">
  <radialGradient id="gradient" cx="31.1978" cy="497.011" r="692.9042" gradientTransform="matrix(.7572 -.6531 .5129 .5946 -247.3283 221.8517)" gradientUnits="userSpaceOnUse">
    <stop offset="0" stop-color="#01c6ff"/>
    <stop offset=".8078" stop-color="#3535e6"/>
    <stop offset="1" stop-color="#2525d6"/>
  </radialGradient>
  <path fill="url(#gradient)" d="M.5.5h511v511H.5z"/>
  <path fill="#FFF" d="M412.538 156.657c-5.298-27.446-20.981-51.209-44.138-66.844-17.407-11.78-37.642-17.997-58.576-17.997-34.859 0-67.295 17.22-86.8 46.018l-107.5 159.006c-15.665 23.172-21.369 51.038-16.056 78.516 5.299 27.447 20.982 51.196 44.139 66.832 17.39 11.794 37.642 17.996 58.575 17.996 34.844 0 67.278-17.221 86.769-46.036l107.501-158.975c15.697-23.203 21.385-51.053 16.086-78.516zM260.076 374.565c-12.995 19.226-34.642 30.727-57.892 30.727-13.923 0-27.446-4.166-39.025-11.998-15.433-10.427-25.892-26.251-29.437-44.572-3.544-18.309.28-36.882 10.708-52.296l54.326-80.26 115.597 77.553-54.277 80.846z"/>
</svg>